<svg width="72" height="72" viewBox="0 0 72 72" fill="none" xmlns="http://www.w3.org/2000/svg">
<g clip-path="url(#clip0)">
<path d="M36.3892 25.3744H9.39146C8.72614 25.3744 8.18691 25.9138 8.18691 26.579C8.18691 27.2443 8.72615 27.7835 9.39146 27.7835H36.3893C37.0547 27.7835 37.5939 27.2441 37.5939 26.579C37.5939 25.9138 37.0547 25.3744 36.3892 25.3744Z" fill="#555770" stroke="#555770" stroke-width="0.3"/>
<path d="M36.3892 32.7846H9.39146C8.72614 32.7846 8.18691 33.324 8.18691 33.9891C8.18691 34.6543 8.72614 35.1937 9.39146 35.1937H36.3893C37.0547 35.1937 37.5939 34.6543 37.5939 33.9891C37.5939 33.3239 37.0547 32.7846 36.3892 32.7846Z" fill="#555770" stroke="#555770" stroke-width="0.3"/>
<path d="M36.3892 40.195H9.39146C8.72614 40.195 8.18691 40.7344 8.18691 41.3995C8.18691 42.0647 8.72614 42.6041 9.39146 42.6041H36.3893C37.0547 42.6041 37.5939 42.0647 37.5939 41.3995C37.5939 40.7343 37.0547 40.195 36.3892 40.195Z" fill="#555770" stroke="#555770" stroke-width="0.3"/>
<path d="M37.5939 48.8099C37.5939 48.1446 37.0547 47.6054 36.3893 47.6054H9.39146C8.72614 47.6054 8.18691 48.1448 8.18691 48.8099C8.18691 49.4751 8.72614 50.0145 9.39146 50.0145H36.3893C37.0547 50.0145 37.5939 49.4752 37.5939 48.8099Z" fill="#555770" stroke="#555770" stroke-width="0.3"/>
<path d="M9.39146 58.4655C8.72614 58.4655 8.18691 59.0049 8.18691 59.67C8.18691 60.3352 8.72614 60.8746 9.39146 60.8746H22.9249C23.5903 60.8746 24.1295 60.3352 24.1295 59.67C24.1295 59.0049 23.5903 58.4655 22.9249 58.4655H9.39146Z" fill="#555770" stroke="#555770" stroke-width="0.3"/>
<path d="M48.691 13.0574V9.63543C48.691 8.249 47.5634 7.12124 46.1768 7.12124H24.5252C23.1387 7.12124 22.0111 8.249 22.0111 9.63543V13.0574C22.0111 14.4438 23.1387 15.5714 24.5252 15.5714H26.3536C27.0189 15.5714 27.5581 15.0321 27.5581 14.3669C27.5581 13.7016 27.0189 13.1624 26.3536 13.1624H24.5252C24.4675 13.1624 24.4204 13.1152 24.4204 13.0575V9.63543C24.4204 9.57768 24.4676 9.53047 24.5252 9.53047H46.1768C46.2346 9.53047 46.2817 9.57765 46.2817 9.63543V13.0574C46.2817 13.115 46.2346 13.1622 46.1768 13.1622H31.2839C30.6186 13.1622 30.0794 13.7016 30.0794 14.3668C30.0794 15.0321 30.6186 15.5713 31.2839 15.5713H46.1769C46.1769 15.5713 46.1769 15.5713 46.1769 15.5713C47.5634 15.5716 48.691 14.4438 48.691 13.0574Z" fill="#555770" stroke="#555770" stroke-width="0.3"/>
<path d="M56.4275 64.1572C55.7622 64.1572 55.2229 64.6966 55.2229 65.3618V66.782C55.2229 68.4132 53.8955 69.7408 52.264 69.7408H5.60998C3.97874 69.7408 2.65118 68.4133 2.65118 66.782V16.0914C2.65118 15.9156 2.66789 15.7421 2.69859 15.5715H12.1779C14.2655 15.5715 15.9636 13.8734 15.9636 11.7858V2.30663C16.1341 2.27594 16.3076 2.25923 16.4834 2.25923H52.2639C53.8953 2.25923 55.2228 3.58666 55.2228 5.21803V19.2583C55.2228 19.9236 55.762 20.4629 56.4274 20.4629C57.0927 20.4629 57.6319 19.9235 57.6319 19.2583V5.21789C57.632 2.258 55.224 -0.15 52.264 -0.15H16.4835C15.05 -0.15 13.7014 0.408615 12.6877 1.42225L1.8142 12.2958C0.800559 13.3094 0.24209 14.6579 0.24209 16.0916V66.7821C0.24209 69.7421 2.64995 72.15 5.60998 72.15H52.264C55.224 72.15 57.632 69.742 57.632 66.7821V65.3619C57.632 64.6966 57.0928 64.1572 56.4275 64.1572ZM4.35478 13.1624L13.5545 3.96269V11.7858C13.5545 12.5447 12.9368 13.1624 12.1779 13.1624H4.35478Z" fill="#555770" stroke="#555770" stroke-width="0.3"/>
<path d="M67.5643 29.4194L67.5643 29.4194C67.5887 30.2297 68.097 30.9292 68.8599 31.2028C70.1411 31.6623 71.118 32.6691 71.5386 33.9637C71.9592 35.2582 71.7608 36.6468 70.9944 37.7718C70.5379 38.4418 70.5379 39.3063 70.9947 39.9759L70.9948 39.9759C71.7612 41.1009 71.9596 42.4895 71.539 43.7841C71.1185 45.0787 70.1417 46.0856 68.8603 46.545C68.0974 46.8187 67.5891 47.5182 67.5648 48.3284L67.5648 48.3285C67.5268 49.5805 66.953 50.7566 65.9902 51.5555C65.3895 52.0539 64.6746 52.376 63.9236 52.5026V61.9755C63.9236 62.8399 63.4549 63.6388 62.7002 64.0605C61.9456 64.4821 61.0195 64.4626 60.2832 64.0095L60.3618 63.8817L60.2832 64.0094L56.4265 61.6352L52.5697 64.0094C51.833 64.4631 50.9066 64.4818 50.1528 64.0606C50.1528 64.0606 50.1528 64.0606 50.1528 64.0606L50.226 63.9297C49.5188 63.5347 49.0793 62.7858 49.0793 61.9757L67.5643 29.4194ZM67.5643 29.4194C67.5231 28.0589 66.8674 26.8187 65.766 26.0186C64.6649 25.2186 63.2826 24.9783 61.9763 25.3595C61.1977 25.5866 60.3759 25.3193 59.8798 24.6783C59.0469 23.6017 57.7875 22.9838 56.4263 22.9838C55.0651 22.9838 53.8056 23.6017 52.9726 24.6783C52.4765 25.3194 51.6542 25.5863 50.8762 25.3595C49.5698 24.978 48.1876 25.2186 47.0863 26.0186L47.0862 26.0186C45.985 26.8187 45.3295 28.0587 45.2882 29.4192L45.2882 29.4193C45.2637 30.2295 44.7556 30.9289 43.9925 31.2027C42.7113 31.6622 41.7344 32.6691 41.3139 33.9635C40.8933 35.2581 41.0918 36.6468 41.8582 37.7717C42.3145 38.4417 42.3145 39.3062 41.8581 39.9761C41.0918 41.1011 40.8933 42.4897 41.3139 43.7842C41.7344 45.0788 42.7113 46.0856 43.9925 46.5452C44.7556 46.819 45.2639 47.5184 45.2882 48.3286L45.2882 48.3286C45.3262 49.5804 45.8998 50.7566 46.8625 51.5555C47.4631 52.0541 48.1781 52.3761 48.9293 52.5028L67.5643 29.4194ZM69.1274 41.2484L69.0034 41.3329C67.9859 39.8395 67.9859 37.9085 69.0034 36.415L69.0034 36.415C69.3474 35.9104 69.4361 35.2887 69.2474 34.7079C69.0585 34.1271 68.6214 33.6764 68.0465 33.4703L68.0465 33.4703C66.3457 32.8603 65.2108 31.298 65.1561 29.4919L65.1561 29.4919C65.1378 28.8816 64.8442 28.3264 64.3501 27.9675L64.3501 27.9675C63.8559 27.6085 63.2374 27.5008 62.6512 27.672L62.6511 27.672C60.9163 28.1781 59.0801 27.5814 57.9743 26.1524C57.6005 25.6694 57.0369 25.3929 56.4261 25.3929C55.8153 25.3929 55.2516 25.6695 54.8778 26.1526C53.7722 27.5814 51.9351 28.1783 50.2011 27.672C49.6143 27.5011 48.9959 27.6087 48.5021 27.9676L48.502 27.9676C48.0079 28.3265 47.7146 28.8816 47.6962 29.492L47.6962 29.4921C47.6414 31.2981 46.5066 32.8603 44.8056 33.4704L44.8056 33.4704C44.2308 33.6765 43.7936 34.1272 43.6049 34.708L69.1274 41.2484ZM69.1274 41.2484L69.0034 41.3329C69.3474 41.8376 69.4361 42.4591 69.2474 43.0399C69.0587 43.6207 68.6214 44.0714 68.0465 44.2776C66.3457 44.8876 65.2108 46.4498 65.1562 48.2558C65.1388 48.8262 64.8889 49.3386 64.4514 49.7017C63.9594 50.11 63.2942 50.2636 62.6513 50.076C60.9168 49.5699 59.0802 50.1666 57.9743 51.5955L57.9743 51.5955M69.1274 41.2484L57.9743 51.5955M43.4622 43.0862C43.2591 42.4613 43.3548 41.7914 43.7249 41.2483M43.4622 43.0862C43.6654 43.7112 44.1365 44.1967 44.755 44.4186C46.3979 45.008 47.4933 46.5159 47.5462 48.2604L43.7249 41.2483M43.4622 43.0862L43.6049 43.0399M43.4622 43.0862L43.6048 43.0398C43.6048 43.0399 43.6049 43.0399 43.6049 43.0399M43.7249 41.2483C44.7074 39.8059 44.7074 37.9422 43.7249 36.4998V41.2483ZM43.6049 43.0399C43.4161 42.4591 43.5049 41.8374 43.8488 41.3327L43.8489 41.3327C44.8661 39.8394 44.8661 37.9087 43.8489 36.4153L43.8488 36.4153C43.5049 35.9106 43.4161 35.289 43.6049 34.708V43.0399ZM57.9743 51.5955C57.6007 52.0784 57.0368 52.355 56.4261 52.355M57.9743 51.5955L56.4261 52.355M56.4261 52.355C55.8155 52.355 55.2517 52.0785 54.8778 51.5955M56.4261 52.355L54.8778 51.5955M54.8778 51.5955C54.0337 50.5044 52.7634 49.8982 51.4372 49.8982C51.0267 49.8982 50.6109 49.9563 50.2012 50.0759M54.8778 51.5955L50.2012 50.0759M50.2012 50.0759C50.2013 50.0759 50.2013 50.0758 50.2013 50.0758L50.2433 50.2199L50.2012 50.0759ZM52.9726 53.0697L52.9726 53.0697C53.8058 54.1462 55.0651 54.7641 56.4264 54.7641C57.7875 54.7641 59.0469 54.1462 59.8798 53.0697C60.2784 52.5547 60.887 52.2821 61.5141 52.312V61.9384L57.6781 59.5769L57.5995 59.7046L57.6781 59.5769C56.911 59.1047 55.9423 59.1039 55.1743 59.5769C55.1742 59.5769 55.1742 59.5769 55.1742 59.5769L51.3384 61.9381V52.312C51.9656 52.2821 52.5741 52.5548 52.9726 53.0697ZM61.5461 61.958L61.5459 61.9579L61.5461 61.958Z" fill="#E41F1F" stroke="#E41F1F" stroke-width="0.3"/>
<path d="M56.4292 29.8852C51.4726 29.8852 47.4403 33.9174 47.4403 38.874C47.4403 43.8306 51.4726 47.8628 56.4292 47.8628C61.3857 47.8628 65.4179 43.8306 65.4179 38.874C65.4179 33.9174 61.3857 29.8852 56.4292 29.8852ZM56.4292 45.4537C52.8012 45.4537 49.8494 42.502 49.8494 38.8741C49.8494 35.2463 52.8012 32.2944 56.4292 32.2944C60.0571 32.2944 63.0088 35.2462 63.0088 38.8741C63.0088 42.5021 60.057 45.4537 56.4292 45.4537Z" fill="#E41F1F" stroke="#E41F1F" stroke-width="0.3"/>
</g>
<defs>
<clipPath id="clip0">
<rect width="72" height="72" fill="white"/>
</clipPath>
</defs>
</svg>
