<svg fill="#000000" xmlns="http://www.w3.org/2000/svg" viewBox="0 0 50 50" width="100px" height="100px"><path d="M 25 2 C 12.309295 2 2 12.309295 2 25 C 2 37.690705 12.309295 48 25 48 C 37.690705 48 48 37.690705 48 25 C 48 12.309295 37.690705 2 25 2 z M 25 4 C 36.609824 4 46 13.390176 46 25 C 46 36.609824 36.609824 46 25 46 C 13.390176 46 4 36.609824 4 25 C 4 13.390176 13.390176 4 25 4 z M 19.535156 16 L 19.535156 34 L 21.78125 34 L 21.78125 26.203125 L 29.751953 26.203125 L 29.751953 24.207031 L 21.78125 24.207031 L 21.78125 18.021484 L 30.462891 18.021484 L 30.462891 16 L 19.535156 16 z"/></svg>