<svg width="26" height="26" viewBox="0 0 26 26" fill="none" xmlns="http://www.w3.org/2000/svg">
<path fill-rule="evenodd" clip-rule="evenodd" d="M4.3335 5.41667C3.74014 5.41667 3.25016 5.90664 3.25016 6.5V19.5C3.25016 20.0934 3.74014 20.5833 4.3335 20.5833H21.6668C22.2602 20.5833 22.7502 20.0934 22.7502 19.5V6.5C22.7502 5.90664 22.2602 5.41667 21.6668 5.41667H4.3335ZM1.0835 6.5C1.0835 4.71002 2.54352 3.25 4.3335 3.25H21.6668C23.4568 3.25 24.9168 4.71002 24.9168 6.5V19.5C24.9168 21.29 23.4568 22.75 21.6668 22.75H4.3335C2.54352 22.75 1.0835 21.29 1.0835 19.5V6.5Z" fill="#BDBDBD"/>
<path fill-rule="evenodd" clip-rule="evenodd" d="M1.27893 5.87868C1.62204 5.38853 2.29753 5.26932 2.78769 5.61243L12.9998 12.7609L23.2119 5.61243C23.702 5.26932 24.3775 5.38853 24.7206 5.87868C25.0637 6.36883 24.9445 7.04432 24.4544 7.38743L13.621 14.9708C13.248 15.2319 12.7515 15.2319 12.3785 14.9708L1.54518 7.38743C1.05503 7.04432 0.935826 6.36883 1.27893 5.87868Z" fill="#BDBDBD"/>
</svg>
