<svg width="70" height="72" viewBox="0 0 70 72" fill="none" xmlns="http://www.w3.org/2000/svg">
<path d="M60.0753 12.3077C59.0449 13.8877 57.2995 14.8309 55.4066 14.8309H14.4768C12.5851 14.8309 10.8398 13.8877 9.80775 12.308L3.37375 2.45983C6.27575 3.55549 9.26013 4.50893 12.2587 5.29776C12.8224 5.44604 13.4002 5.10921 13.5487 4.54512C13.6971 3.98103 13.3602 3.40355 12.7961 3.255C9.56569 2.4052 6.35236 1.35995 3.24491 0.147974C2.51156 -0.138156 1.68499 0.0802436 1.18891 0.691228C0.693815 1.30109 0.650022 2.15272 1.07978 2.81031L8.03957 13.4633C9.26576 15.3404 11.2219 16.5632 13.4069 16.8669V23.726H8.46313C7.87975 23.726 7.40704 24.1989 7.40704 24.7821V31.0699C7.40704 31.6532 7.87975 32.126 8.46313 32.126H13.4068V55.1652H12.386C11.8026 55.1652 11.3299 55.638 11.3299 56.2213V69.8878H3.54034C2.95695 69.8878 2.48424 70.3606 2.48424 70.9439C2.48424 71.5271 2.95695 72 3.54034 72H66.4603C67.8358 71.9592 67.881 69.9469 66.4603 69.8878H58.6707V56.2213C58.6707 55.638 58.198 55.1652 57.6147 55.1652H56.9017V32.1259H61.5377C62.1211 32.1259 62.5938 31.653 62.5938 31.0698V24.782C62.5938 24.1987 62.1211 23.7259 61.5377 23.7259H56.9017V16.7968C58.9156 16.4015 60.6996 15.2171 61.8448 13.4615L68.9292 2.77173C69.3515 2.11414 69.3025 1.26645 68.8075 0.66208C68.3099 0.0546158 67.4835 -0.161531 66.751 0.124881C50.9432 6.33456 33.5229 7.76634 16.9324 4.23702C16.362 4.11635 15.8013 4.48063 15.6803 5.0512C15.5595 5.62177 15.9239 6.18234 16.4945 6.3033C33.1698 9.85121 50.6888 8.50504 66.6324 2.43378L60.0753 12.3077ZM48.482 25.8381V30.0137H37.214C36.6307 30.0137 36.158 30.4865 36.158 31.0698C36.158 31.653 36.6307 32.1259 37.214 32.1259H48.482V55.165H47.4612C46.8779 55.165 46.4051 55.6379 46.4051 56.2211V69.8877H23.5955V56.2211C23.5955 55.6379 23.1228 55.165 22.5394 55.165H21.8264V32.1259H33.0054C33.5888 32.1259 34.0615 31.653 34.0615 31.0698C34.0615 30.4865 33.5888 30.0137 33.0054 30.0137H21.8264V25.8381H48.482ZM21.8262 23.7259V16.9432H30.7905V23.7259H21.8262ZM48.482 23.7259H39.2101V16.9432H48.482V23.7259ZM37.0979 16.9432V23.7259H32.9027V16.9432H37.0979ZM9.51923 30.0137V25.8381H13.4068V30.0137H9.51923ZM15.519 16.9432H19.714V55.165H15.519V16.9432ZM13.4421 69.8877V57.2772H21.4832V69.8877H13.4421ZM48.5173 69.8877V57.2772H56.5584V69.8877H48.5173ZM50.5942 55.165V16.9432H54.7894V55.165H50.5942ZM60.4814 25.8381V30.0137H56.9016V25.8381H60.4814Z" fill="#555770"/>
</svg>
