<svg width="72" height="72" fill="none" xmlns="http://www.w3.org/2000/svg"><g clip-path="url(#clip0)" stroke-width=".3"><path d="M36.39 25.374h-27a1.205 1.205 0 000 2.41h27a1.205 1.205 0 100-2.41zm0 7.411h-27a1.205 1.205 0 000 2.409h27a1.205 1.205 0 100-2.41zm0 7.41h-27a1.205 1.205 0 000 2.41h27a1.205 1.205 0 100-2.41zm1.204 8.615c0-.665-.54-1.205-1.205-1.205H9.391a1.205 1.205 0 000 2.41H36.39c.666 0 1.205-.54 1.205-1.205zM9.391 58.465a1.205 1.205 0 000 2.41h13.534a1.205 1.205 0 100-2.41H9.39zm39.3-45.408V9.635a2.517 2.517 0 00-2.514-2.514H24.525a2.517 2.517 0 00-2.514 2.514v3.422a2.517 2.517 0 002.514 2.514h1.829a1.204 1.204 0 100-2.409h-1.829a.105.105 0 01-.105-.105V9.635c0-.057.048-.105.105-.105h21.652c.058 0 .105.048.105.105v3.422a.105.105 0 01-.105.105H31.284a1.205 1.205 0 000 2.41h14.893s0 0 0 0a2.516 2.516 0 002.514-2.515z" fill="#555770" stroke="#555770"/><path d="M56.428 64.157c-.666 0-1.205.54-1.205 1.205v1.42a2.962 2.962 0 01-2.959 2.959H5.61a2.962 2.962 0 01-2.959-2.959v-50.69c0-.176.017-.35.048-.52h9.479a3.79 3.79 0 003.786-3.786v-9.48c.17-.03.344-.047.52-.047h35.78a2.962 2.962 0 012.959 2.959v14.04a1.205 1.205 0 102.409 0V5.218A5.374 5.374 0 0052.264-.15h-35.78a5.334 5.334 0 00-3.796 1.572L1.814 12.296a5.334 5.334 0 00-1.572 3.796v50.69A5.374 5.374 0 005.61 72.15h46.654a5.374 5.374 0 005.368-5.368v-1.42c0-.665-.54-1.205-1.204-1.205zM4.355 13.162l9.2-9.2v7.824c0 .759-.618 1.376-1.377 1.376H4.355z" fill="#555770" stroke="#555770"/><path d="M67.564 29.42h0c.025.81.533 1.51 1.296 1.783a4.338 4.338 0 012.679 2.76 4.339 4.339 0 01-.545 3.809 1.944 1.944 0 000 2.204h0a4.339 4.339 0 01.545 3.808 4.337 4.337 0 01-2.679 2.761 1.945 1.945 0 00-1.295 1.783h0a4.366 4.366 0 01-3.641 4.175v9.472a2.39 2.39 0 01-3.64 2.035l.078-.128-.079.127-3.857-2.374-3.856 2.374a2.39 2.39 0 01-2.417.052s0 0 0 0l.073-.131a2.24 2.24 0 01-1.147-1.954l18.485-32.557zm0 0a4.339 4.339 0 00-1.798-3.401 4.339 4.339 0 00-3.79-.66c-.778.228-1.6-.04-2.096-.68a4.338 4.338 0 00-3.454-1.695 4.34 4.34 0 00-3.453 1.694 1.946 1.946 0 01-2.097.681 4.338 4.338 0 00-3.79.66h0a4.339 4.339 0 00-1.798 3.4h0a1.946 1.946 0 01-1.295 1.784 4.338 4.338 0 00-2.68 2.76 4.339 4.339 0 00.545 3.809c.457.67.457 1.534 0 2.204a4.339 4.339 0 00-.544 3.808 4.338 4.338 0 002.678 2.761 1.945 1.945 0 011.296 1.784h0a4.366 4.366 0 003.641 4.174l18.635-23.084zm1.563 11.828l-.124.085a4.343 4.343 0 010-4.918h0a1.943 1.943 0 00.244-1.707 1.944 1.944 0 00-1.2-1.238h0a4.343 4.343 0 01-2.89-3.978h0a1.943 1.943 0 00-.807-1.524h0a1.943 1.943 0 00-1.699-.296h0a4.343 4.343 0 01-4.677-1.52 1.943 1.943 0 00-1.548-.76c-.61 0-1.174.277-1.548.76a4.343 4.343 0 01-4.677 1.52 1.944 1.944 0 00-1.699.296h0a1.943 1.943 0 00-.806 1.524h0a4.343 4.343 0 01-2.89 3.978h0a1.943 1.943 0 00-1.201 1.238l25.522 6.54zm0 0l-.124.085c.344.505.433 1.126.244 1.707a1.943 1.943 0 01-1.2 1.238 4.343 4.343 0 00-2.89 3.978 1.929 1.929 0 01-.706 1.446 1.95 1.95 0 01-1.8.374 4.344 4.344 0 00-4.677 1.52h0m11.153-10.348L57.974 51.596m-14.512-8.51a2.093 2.093 0 01.263-1.838m-.263 1.838c.203.625.674 1.11 1.293 1.333a4.193 4.193 0 012.791 3.841l-3.821-7.012m-.263 1.838l.143-.046m-.143.046l.143-.046s0 0 0 0m.12-1.792a4.193 4.193 0 000-4.748v4.748zm-.12 1.792c-.189-.58-.1-1.203.244-1.707h0a4.343 4.343 0 000-4.918h0a1.943 1.943 0 01-.244-1.707v8.332zm14.37 8.556a1.947 1.947 0 01-1.549.759m1.548-.76l-1.548.76m0 0c-.61 0-1.174-.276-1.548-.76m1.548.76l-1.548-.76m0 0a4.34 4.34 0 00-4.677-1.52m4.677 1.52l-4.677-1.52m0 0s0 0 0 0l.042.145-.042-.144zm2.772 2.995h0a4.34 4.34 0 003.453 1.694c1.361 0 2.62-.618 3.454-1.694a1.942 1.942 0 011.634-.758v9.626l-3.836-2.361-.078.128.078-.128a2.388 2.388 0 00-2.504 0s0 0 0 0l-3.836 2.361v-9.626a1.942 1.942 0 011.635.758zm8.573 8.888h0z" fill="#E41F1F" stroke="#E41F1F"/><path d="M56.43 29.885c-4.957 0-8.99 4.032-8.99 8.989 0 4.957 4.033 8.989 8.99 8.989 4.956 0 8.988-4.032 8.988-8.989 0-4.957-4.032-8.989-8.989-8.989zm0 15.569a6.587 6.587 0 01-6.58-6.58 6.587 6.587 0 016.58-6.58 6.587 6.587 0 016.579 6.58 6.587 6.587 0 01-6.58 6.58z" fill="#E41F1F" stroke="#E41F1F"/></g><defs><clipPath id="clip0"><path fill="#fff" d="M0 0h72v72H0z"/></clipPath></defs></svg>