<svg width="26" height="26" fill="none" xmlns="http://www.w3.org/2000/svg"><path fill-rule="evenodd" clip-rule="evenodd" d="M4.333 5.417A1.09 1.09 0 003.25 6.5v13c0 .593.49 1.083 1.083 1.083h17.334A1.09 1.09 0 0022.75 19.5v-13a1.09 1.09 0 00-1.083-1.083H4.333zM1.083 6.5c0-1.79 1.46-3.25 3.25-3.25h17.334c1.79 0 3.25 1.46 3.25 3.25v13c0 1.79-1.46 3.25-3.25 3.25H4.333c-1.79 0-3.25-1.46-3.25-3.25v-13z" fill="#BDBDBD"/><path fill-rule="evenodd" clip-rule="evenodd" d="M1.279 5.879a1.083 1.083 0 011.509-.267L13 12.761l10.212-7.149a1.083 1.083 0 111.242 1.775l-10.833 7.584c-.373.26-.87.26-1.242 0L1.545 7.387A1.083 1.083 0 011.28 5.88z" fill="#BDBDBD"/></svg>