<svg width="70" height="72" fill="none" xmlns="http://www.w3.org/2000/svg"><path d="M60.075 12.308a5.553 5.553 0 01-4.668 2.523h-40.93a5.557 5.557 0 01-4.67-2.523L3.375 2.46a90.212 90.212 0 008.885 2.838 1.056 1.056 0 00.537-2.043A87.995 87.995 0 013.245.148a1.798 1.798 0 00-2.056.543 1.794 1.794 0 00-.11 2.12l6.96 10.652a7.654 7.654 0 005.368 3.404v6.859H8.463c-.583 0-1.056.473-1.056 1.056v6.288c0 .583.473 1.056 1.056 1.056h4.944v23.04h-1.021c-.583 0-1.056.472-1.056 1.055v13.667H3.54a1.056 1.056 0 100 2.112h62.92c1.376-.04 1.421-2.053 0-2.112h-7.79V56.22c0-.583-.472-1.056-1.055-1.056h-.713v-23.04h4.636c.583 0 1.056-.472 1.056-1.055v-6.288c0-.583-.473-1.056-1.056-1.056h-4.636v-6.93a7.648 7.648 0 004.943-3.335l7.084-10.69A1.803 1.803 0 0066.751.125a87.083 87.083 0 01-49.819 4.113 1.056 1.056 0 00-.438 2.066C33.17 9.851 50.69 8.505 66.632 2.433l-6.557 9.875zm-11.593 13.53v4.176H37.214a1.056 1.056 0 100 2.112h11.268v23.039h-1.02c-.584 0-1.057.473-1.057 1.056v13.667h-22.81V56.22c0-.583-.472-1.056-1.056-1.056h-.713v-23.04h11.18a1.056 1.056 0 100-2.111h-11.18v-4.176h26.656zm-26.656-2.112v-6.783h8.965v6.783h-8.965zm26.656 0H39.21v-6.783h9.272v6.783zm-11.384-6.783v6.783h-4.195v-6.783h4.195zM9.519 30.013v-4.175h3.888v4.176H9.519zm6-13.07h4.195v38.222h-4.195V16.943zm-2.077 52.945v-12.61h8.041v12.61h-8.04zm35.075 0v-12.61h8.041v12.61h-8.04zm2.077-14.723V16.943h4.195v38.222h-4.195zm9.887-29.327v4.176h-3.58v-4.176h3.58z" fill="#555770"/></svg>